<?xml version="1.0" encoding="UTF-8"?>
<svg width="1024" height="1024" viewBox="0 0 1024 1024" xmlns="http://www.w3.org/2000/svg">
  <!-- Background circle -->
  <circle cx="512" cy="512" r="512" fill="#2D5016"/>
  
  <!-- Main body of chainsaw -->
  <rect x="200" y="400" width="500" height="120" rx="20" fill="#FF4500"/>
  <rect x="210" y="410" width="480" height="100" rx="15" fill="#FF6500"/>
  
  <!-- Handle -->
  <rect x="150" y="350" width="80" height="180" rx="15" fill="#4A4A4A"/>
  <rect x="160" y="360" width="60" height="160" rx="10" fill="#666666"/>
  
  <!-- Trigger -->
  <rect x="180" y="450" width="30" height="50" rx="15" fill="#FF2200"/>
  
  <!-- Chain bar -->
  <rect x="680" y="420" width="200" height="80" rx="40" fill="#C0C0C0"/>
  <rect x="690" y="430" width="180" height="60" rx="30" fill="#E8E8E8"/>
  
  <!-- Chain -->
  <circle cx="700" cy="460" r="8" fill="#808080"/>
  <circle cx="720" cy="460" r="8" fill="#808080"/>
  <circle cx="740" cy="460" r="8" fill="#808080"/>
  <circle cx="760" cy="460" r="8" fill="#808080"/>
  <circle cx="780" cy="460" r="8" fill="#808080"/>
  <circle cx="800" cy="460" r="8" fill="#808080"/>
  <circle cx="820" cy="460" r="8" fill="#808080"/>
  <circle cx="840" cy="460" r="8" fill="#808080"/>
  <circle cx="860" cy="460" r="8" fill="#808080"/>
  
  <!-- Electric symbol -->
  <polygon points="580,380 620,420 600,420 640,460 600,420 620,420 580,380" fill="#FFD700"/>
  
  <!-- Engine housing -->
  <rect x="250" y="380" width="200" height="160" rx="20" fill="#2A2A2A"/>
  <rect x="260" y="390" width="180" height="140" rx="15" fill="#3A3A3A"/>
  
  <!-- Air vents -->
  <rect x="280" y="410" width="140" height="4" fill="#1A1A1A"/>
  <rect x="280" y="420" width="140" height="4" fill="#1A1A1A"/>
  <rect x="280" y="430" width="140" height="4" fill="#1A1A1A"/>
  <rect x="280" y="440" width="140" height="4" fill="#1A1A1A"/>
  <rect x="280" y="450" width="140" height="4" fill="#1A1A1A"/>
  
  <!-- Brand text -->
  <text x="512" y="650" font-family="Arial, sans-serif" font-size="48" font-weight="bold" text-anchor="middle" fill="#FFFFFF">ECO</text>
  <text x="512" y="700" font-family="Arial, sans-serif" font-size="36" font-weight="bold" text-anchor="middle" fill="#90EE90">SERRA</text>
</svg>
